<svg width="414" height="896" viewBox="0 0 414 896" fill="none" xmlns="http://www.w3.org/2000/svg">
<g clip-path="url(#clip0_314_1840)">
<rect width="414" height="896" rx="32" fill="white"/>
<path fill-rule="evenodd" clip-rule="evenodd" d="M424.549 224.335C436.827 222.927 450.694 214.407 460.157 222.328C469.677 230.296 467.336 245.739 464.541 257.811C462.324 267.386 454.31 273.612 446.806 279.989C440.158 285.64 433.144 290.233 424.549 291.802C413.541 293.811 401.522 296.266 392.308 289.937C381.876 282.771 374.23 270.408 375.062 257.811C375.867 245.633 386.159 236.508 396.292 229.654C404.536 224.077 414.649 225.471 424.549 224.335Z" fill="#0CCC83" fill-opacity="0.3"/>
<path fill-rule="evenodd" clip-rule="evenodd" d="M-2.57729 117.248C17.2019 115.069 37.6435 127.484 46.73 144.926C54.626 160.084 39.6263 175.696 36.6089 192.471C33.1863 211.499 45.208 237.05 28.3747 246.974C11.493 256.926 -8.75591 240.121 -24.4942 228.492C-36.0376 219.963 -41.6694 207.026 -44.5406 193.096C-47.298 179.717 -46.3855 166.443 -39.7537 154.456C-30.8593 138.38 -21.0484 119.284 -2.57729 117.248Z" fill="#0CCC83" fill-opacity="0.19"/>
<path fill-rule="evenodd" clip-rule="evenodd" d="M70.3575 329.219C75.7313 328.593 81.7153 329.151 85.5027 332.996C89.2692 336.819 89.1057 342.716 88.9244 348.067C88.7512 353.177 88.489 358.913 84.5148 362.154C80.7098 365.257 75.2615 363.597 70.3575 363.208C66.0487 362.867 61.8074 362.573 58.2871 360.078C53.989 357.03 48.9789 353.318 49.0001 348.067C49.0212 342.821 54.4395 339.632 58.3835 336.151C61.975 332.982 65.5895 329.773 70.3575 329.219Z" fill="#CFF3E5"/>
<path fill-rule="evenodd" clip-rule="evenodd" d="M355.175 553.584C360.097 554.574 362.88 559.192 366.378 562.808C369.792 566.336 374.815 569.147 374.994 574.065C375.176 579.054 371.029 582.96 367.231 586.179C363.807 589.08 359.544 589.871 355.175 590.862C348.674 592.337 341.018 597.75 336.089 593.243C331.193 588.768 336.383 580.702 336.801 574.065C337.171 568.197 334.444 561.538 338.362 557.171C342.35 552.726 349.335 552.409 355.175 553.584Z" fill="#0CCC83" fill-opacity="0.27"/>
<path fill-rule="evenodd" clip-rule="evenodd" d="M-43.6828 522.815C-15.5768 513.49 16.0073 506.982 41.7699 521.578C73.792 539.72 113.196 571.144 104.871 606.978C96.3153 643.806 40.0197 637.764 9.56581 660.194C-12.037 676.105 -17.1597 712.31 -43.6828 716.39C-71.5752 720.681 -98.8121 701.688 -116.306 679.557C-132.188 659.465 -136.567 631.772 -130.172 606.978C-124.882 586.468 -101.723 578.924 -86.5392 564.148C-71.7526 549.759 -63.2699 529.314 -43.6828 522.815Z" fill="#70DAB1"/>
</g>
<defs>
<clipPath id="clip0_314_1840">
<rect width="414" height="896" rx="32" fill="white"/>
</clipPath>
</defs>
</svg>
