<svg width="144" height="144" viewBox="0 0 144 144" fill="none" xmlns="http://www.w3.org/2000/svg">
<rect width="144" height="144" rx="40" fill="#0CCC83"/>
<g filter="url(#filter0_dd_321_1819)">
<path fill-rule="evenodd" clip-rule="evenodd" d="M93.5347 81.3302C92.3652 80.7476 86.6156 77.9319 85.5435 77.5436C84.4716 77.1553 83.6922 76.961 82.9125 78.1261C82.1329 79.2913 79.8917 81.9128 79.2094 82.6896C78.5273 83.4662 77.8452 83.5636 76.6757 82.9808C75.5063 82.3984 71.7382 81.1693 67.2714 77.2041C63.7948 74.1182 61.4478 70.3065 60.7655 69.1414C60.0834 67.9762 60.6929 67.3464 61.2785 66.7661C61.8044 66.2448 62.4478 65.4069 63.0325 64.7272C63.6172 64.0475 63.8122 63.5621 64.202 62.7854C64.5918 62.0086 64.3969 61.3289 64.1044 60.7463C63.8122 60.1638 61.4734 54.4352 60.4989 52.1049C59.5497 49.8355 58.5855 50.1425 57.8676 50.1069C57.1862 50.0731 56.4059 50.066 55.6263 50.066C54.8466 50.066 53.5798 50.3574 52.5077 51.5223C51.4357 52.6874 48.4147 55.5034 48.4147 61.2318C48.4147 66.9604 52.6052 72.4947 53.19 73.2715C53.7747 74.0484 61.4363 85.8041 73.1675 90.8454C75.9577 92.0445 78.1361 92.7605 79.8344 93.2972C82.636 94.1828 85.1854 94.0579 87.2004 93.7582C89.4472 93.4241 94.1194 90.9425 95.094 88.2239C96.0684 85.5053 96.0683 83.175 95.7761 82.6896C95.4838 82.2041 94.7042 81.9128 93.5347 81.3302ZM72.1966 110.325H72.1809C65.2004 110.323 58.354 108.457 52.3814 104.929L50.9608 104.09L36.2375 107.934L40.1675 93.6474L39.2424 92.1828C35.3484 86.0187 33.2918 78.8942 33.2947 71.5791C33.3033 50.2331 50.7544 32.8668 72.2121 32.8668C82.6026 32.8708 92.3698 36.9031 99.7144 44.2208C107.059 51.5386 111.102 61.2658 111.098 71.6104C111.089 92.9579 93.638 110.325 72.1966 110.325ZM105.304 38.6603C96.4679 29.8559 84.7164 25.0049 72.1961 24.9999C46.3988 24.9999 25.4029 45.894 25.3925 71.5762C25.3892 79.7857 27.5442 87.7994 31.6399 94.8627L25 119L49.8113 112.523C56.6474 116.234 64.3441 118.189 72.1775 118.193H72.1966H72.1968C97.9917 118.193 118.989 97.2958 119 71.6133C119.005 59.1674 114.141 47.4644 105.304 38.6603Z" fill="#F5FDFA"/>
<path d="M85.5435 77.5436L85.3732 78.0137L85.3732 78.0137L85.5435 77.5436ZM79.2094 82.6896L78.8337 82.3596L78.8337 82.3596L79.2094 82.6896ZM76.6757 82.9808L76.8986 82.5332L76.8988 82.5333L76.6757 82.9808ZM67.2714 77.2041L67.6033 76.8301L67.6033 76.8301L67.2714 77.2041ZM60.7655 69.1414L60.334 69.394L60.334 69.394L60.7655 69.1414ZM61.2785 66.7661L61.6305 67.1212L61.6305 67.1213L61.2785 66.7661ZM64.202 62.7854L64.6489 63.0097L64.6488 63.0097L64.202 62.7854ZM64.1044 60.7463L63.6576 60.9707L63.6575 60.9705L64.1044 60.7463ZM60.4989 52.1049L60.9601 51.9119L60.9601 51.912L60.4989 52.1049ZM57.8676 50.1069L57.8429 50.6063H57.8429L57.8676 50.1069ZM52.5077 51.5223L52.1397 51.1838L52.1398 51.1837L52.5077 51.5223ZM73.1675 90.8454L73.3649 90.386L73.365 90.386L73.1675 90.8454ZM79.8344 93.2972L79.985 92.8204L79.9851 92.8204L79.8344 93.2972ZM87.2004 93.7582L87.1268 93.2637H87.1268L87.2004 93.7582ZM95.094 88.2239L95.5647 88.3926L95.5647 88.3926L95.094 88.2239ZM72.1809 110.325V110.825H72.1807L72.1809 110.325ZM52.3814 104.929L52.1271 105.36L52.127 105.36L52.3814 104.929ZM50.9608 104.09L50.8345 103.606L51.0359 103.553L51.2151 103.659L50.9608 104.09ZM36.2375 107.934L36.3638 108.418L35.5257 108.636L35.7554 107.801L36.2375 107.934ZM40.1675 93.6474L40.5902 93.3804L40.7082 93.5671L40.6496 93.78L40.1675 93.6474ZM39.2424 92.1828L39.6651 91.9158L39.6651 91.9158L39.2424 92.1828ZM33.2947 71.5791L32.7947 71.5789L33.2947 71.5791ZM72.2121 32.8668V32.3668H72.2123L72.2121 32.8668ZM99.7144 44.2208L100.067 43.8666H100.067L99.7144 44.2208ZM111.098 71.6104L111.598 71.6106V71.6106L111.098 71.6104ZM72.1961 24.9999V24.4999H72.1963L72.1961 24.9999ZM25.3925 71.5762L25.8925 71.5764V71.5764L25.3925 71.5762ZM31.6399 94.8627L32.0724 94.6119L32.1775 94.7933L32.1219 94.9954L31.6399 94.8627ZM25 119L25.1263 119.484L24.2882 119.703L24.5179 118.867L25 119ZM49.8113 112.523L49.685 112.039L49.8762 111.989L50.0498 112.084L49.8113 112.523ZM72.1775 118.193V118.693L72.1773 118.693L72.1775 118.193ZM119 71.6133L119.5 71.6135V71.6135L119 71.6133ZM93.3118 81.7777C92.7294 81.4876 91.0018 80.6391 89.286 79.8147C87.5544 78.9827 85.8791 78.1969 85.3732 78.0137L85.7138 77.0735C86.28 77.2785 88.0156 78.0948 89.7191 78.9133C91.4386 79.7395 93.1705 80.5901 93.7576 80.8826L93.3118 81.7777ZM85.3732 78.0137C84.8222 77.8141 84.4673 77.7158 84.175 77.7491C83.9377 77.7761 83.6638 77.9025 83.3281 78.4042L82.497 77.8481C82.9409 77.1847 83.4465 76.8256 84.0618 76.7555C84.6221 76.6917 85.1929 76.8848 85.7138 77.0735L85.3732 78.0137ZM83.3281 78.4042C82.5266 79.602 80.2616 82.2493 79.5851 83.0195L78.8337 82.3596C79.5218 81.5762 81.7391 78.9806 82.497 77.8481L83.3281 78.4042ZM79.5851 83.0195C79.196 83.4625 78.7514 83.7729 78.1853 83.8413C77.6396 83.9073 77.0704 83.7361 76.4527 83.4283L76.8988 82.5333C77.4505 82.8082 77.8071 82.8798 78.0654 82.8486C78.3032 82.8198 78.5407 82.6932 78.8337 82.3596L79.5851 83.0195ZM76.4529 83.4283C75.3322 82.8703 71.4711 81.6007 66.9394 77.578L67.6033 76.8301C72.0053 80.7378 75.6803 81.9265 76.8986 82.5332L76.4529 83.4283ZM66.9394 77.578C63.4035 74.4394 61.0247 70.5734 60.334 69.394L61.197 68.8887C61.8709 70.0396 64.1862 73.797 67.6033 76.8301L66.9394 77.578ZM60.334 69.394C59.9329 68.7089 59.8752 68.103 60.0782 67.5595C60.2632 67.0642 60.6473 66.6877 60.9266 66.4109L61.6305 67.1213C61.3241 67.4248 61.1106 67.6534 61.015 67.9094C60.9374 68.1171 60.916 68.4087 61.197 68.8888L60.334 69.394ZM60.9265 66.411C61.435 65.9069 62.0365 65.1183 62.6535 64.4011L63.4115 65.0533C62.859 65.6955 62.1737 66.5828 61.6305 67.1212L60.9265 66.411ZM62.6535 64.4011C63.1886 63.7791 63.3539 63.3605 63.7551 62.5611L64.6488 63.0097C64.2705 63.7636 64.0459 64.3159 63.4115 65.0533L62.6535 64.4011ZM63.7551 62.5612C64.0422 61.9891 63.9188 61.4909 63.6576 60.9707L64.5513 60.522C64.875 61.1668 65.1415 62.0281 64.6489 63.0097L63.7551 62.5612ZM63.6575 60.9705C63.5006 60.6578 62.8321 59.0528 62.0955 57.2721C61.3516 55.4739 60.5244 53.4618 60.0376 52.2978L60.9601 51.912C61.4479 53.0782 62.2773 55.0956 63.0195 56.8899C63.769 58.7017 64.4159 60.2522 64.5513 60.5221L63.6575 60.9705ZM60.0376 52.2978C59.5852 51.2161 59.1727 50.8566 58.8837 50.7207C58.5534 50.5653 58.324 50.6302 57.8429 50.6063L57.8924 49.6076C58.1291 49.6193 58.7408 49.5484 59.3093 49.8158C59.9192 50.1026 60.4634 50.7243 60.9601 51.9119L60.0376 52.2978ZM57.8429 50.6063C57.1746 50.5732 56.4046 50.566 55.6263 50.566V49.566C56.4072 49.566 57.1979 49.5731 57.8924 49.6076L57.8429 50.6063ZM55.6263 50.566C54.9606 50.566 53.8368 50.8164 52.8756 51.8609L52.1398 51.1837C53.3228 49.8983 54.7327 49.566 55.6263 49.566V50.566ZM52.8756 51.8608C51.8058 53.0237 48.9147 55.7128 48.9147 61.2318H47.9147C47.9147 55.294 51.0657 52.3512 52.1397 51.1838L52.8756 51.8608ZM48.9147 61.2318C48.9147 63.983 49.924 66.7165 51.0284 68.8813C52.1292 71.039 53.3023 72.5893 53.5894 72.9708L52.7905 73.5722C52.4929 73.1769 51.2783 71.5716 50.1377 69.3358C49.0006 67.107 47.9147 64.2091 47.9147 61.2318H48.9147ZM53.5894 72.9708C54.2009 73.7832 61.7815 85.4082 73.3649 90.386L72.9701 91.3048C61.0911 86.2 53.3485 74.3136 52.7905 73.5722L53.5894 72.9708ZM73.365 90.386C76.1333 91.5758 78.294 92.286 79.985 92.8204L79.6837 93.774C77.9782 93.235 75.7821 92.5133 72.9701 91.3047L73.365 90.386ZM79.9851 92.8204C82.6876 93.6747 85.1532 93.5572 87.1268 93.2637L87.2739 94.2528C85.2175 94.5586 82.5844 94.6909 79.6837 93.7739L79.9851 92.8204ZM87.1268 93.2637C88.1569 93.1105 89.8195 92.4434 91.3554 91.4637C92.9035 90.4761 94.1943 89.252 94.6233 88.0552L95.5647 88.3926C95.0191 89.9145 93.4865 91.2904 91.8932 92.3068C90.2875 93.331 88.4906 94.0718 87.2739 94.2528L87.1268 93.2637ZM94.6233 88.0552C95.0958 86.737 95.3303 85.517 95.4119 84.5761C95.4527 84.1051 95.4546 83.7117 95.4314 83.416C95.4197 83.268 95.4023 83.1513 95.3829 83.0653C95.362 82.9726 95.3446 82.9422 95.3477 82.9475L96.2044 82.4317C96.3428 82.6616 96.4019 83.0025 96.4283 83.3376C96.4568 83.7004 96.4526 84.1504 96.4081 84.6625C96.3192 85.6878 96.0666 86.9922 95.5647 88.3926L94.6233 88.0552ZM95.3477 82.9475C95.2753 82.8272 95.1126 82.6862 94.7446 82.4851C94.3756 82.2835 93.9253 82.0834 93.3118 81.7777L93.7576 80.8826C94.3135 81.1595 94.8378 81.3965 95.2241 81.6075C95.6114 81.8192 95.9846 82.0665 96.2044 82.4317L95.3477 82.9475ZM72.1966 110.825H72.1809V109.825H72.1966V110.825ZM72.1807 110.825C65.1115 110.823 58.1772 108.933 52.1271 105.36L52.6356 104.499C58.5308 107.98 65.2894 109.823 72.1811 109.825L72.1807 110.825ZM52.127 105.36L50.7064 104.52L51.2151 103.659L52.6357 104.499L52.127 105.36ZM51.0871 104.574L36.3638 108.418L36.1112 107.45L50.8345 103.606L51.0871 104.574ZM35.7554 107.801L39.6854 93.5148L40.6496 93.78L36.7196 108.066L35.7554 107.801ZM39.7448 93.9144L38.8197 92.4498L39.6651 91.9158L40.5902 93.3804L39.7448 93.9144ZM38.8197 92.4499C34.875 86.2055 32.7918 78.9883 32.7947 71.5789L33.7947 71.5793C33.7919 78.8002 35.8218 85.8319 39.6651 91.9158L38.8197 92.4499ZM32.7947 71.5789C32.8034 49.9546 50.4806 32.3668 72.2121 32.3668V33.3668C51.0282 33.3668 33.8032 50.5116 33.7947 71.5793L32.7947 71.5789ZM72.2123 32.3668C82.7346 32.3708 92.6288 36.4554 100.067 43.8666L99.3615 44.575C92.1108 37.3509 82.4705 33.3707 72.2119 33.3668L72.2123 32.3668ZM100.067 43.8666C107.506 51.278 111.602 61.1326 111.598 71.6106L110.598 71.6102C110.602 61.3989 106.612 51.7992 99.3615 44.575L100.067 43.8666ZM111.598 71.6106C111.589 93.2362 93.9119 110.825 72.1966 110.825V109.825C93.364 109.825 110.589 92.6795 110.598 71.6102L111.598 71.6106ZM104.951 39.0145C96.209 30.3037 84.5845 25.5048 72.1959 25.4999L72.1963 24.4999C84.8484 24.5049 96.7268 29.4081 105.657 38.3061L104.951 39.0145ZM72.1961 25.4999C46.6728 25.4999 25.9028 46.1724 25.8925 71.5764L24.8925 71.576C24.903 45.6156 46.1249 24.4999 72.1961 24.4999V25.4999ZM25.8925 71.5764C25.8892 79.6979 28.0211 87.625 32.0724 94.6119L31.2073 95.1136C27.0674 87.9738 24.8891 79.8735 24.8925 71.576L25.8925 71.5764ZM32.1219 94.9954L25.4821 119.133L24.5179 118.867L31.1578 94.7301L32.1219 94.9954ZM24.8737 118.516L49.685 112.039L49.9376 113.007L25.1263 119.484L24.8737 118.516ZM50.0498 112.084C56.8125 115.754 64.4272 117.689 72.1777 117.693L72.1773 118.693C64.261 118.689 56.4823 116.713 49.5727 112.962L50.0498 112.084ZM72.1775 117.693H72.1966V118.693H72.1775V117.693ZM72.1966 117.693H72.1968V118.693H72.1966V117.693ZM72.1968 117.693C97.7177 117.693 118.49 97.0174 118.5 71.6131L119.5 71.6135C119.489 97.5741 98.2656 118.693 72.1968 118.693V117.693ZM118.5 71.6132C118.505 59.3005 113.694 47.725 104.951 39.0145L105.657 38.3061C114.588 47.2039 119.505 59.0342 119.5 71.6135L118.5 71.6132Z" fill="black"/>
<path d="M85.5435 77.5436L85.3732 78.0137L85.3732 78.0137L85.5435 77.5436ZM79.2094 82.6896L78.8337 82.3596L78.8337 82.3596L79.2094 82.6896ZM76.6757 82.9808L76.8986 82.5332L76.8988 82.5333L76.6757 82.9808ZM67.2714 77.2041L67.6033 76.8301L67.6033 76.8301L67.2714 77.2041ZM60.7655 69.1414L60.334 69.394L60.334 69.394L60.7655 69.1414ZM61.2785 66.7661L61.6305 67.1212L61.6305 67.1213L61.2785 66.7661ZM64.202 62.7854L64.6489 63.0097L64.6488 63.0097L64.202 62.7854ZM64.1044 60.7463L63.6576 60.9707L63.6575 60.9705L64.1044 60.7463ZM60.4989 52.1049L60.9601 51.9119L60.9601 51.912L60.4989 52.1049ZM57.8676 50.1069L57.8429 50.6063H57.8429L57.8676 50.1069ZM52.5077 51.5223L52.1397 51.1838L52.1398 51.1837L52.5077 51.5223ZM73.1675 90.8454L73.3649 90.386L73.365 90.386L73.1675 90.8454ZM79.8344 93.2972L79.985 92.8204L79.9851 92.8204L79.8344 93.2972ZM87.2004 93.7582L87.1268 93.2637H87.1268L87.2004 93.7582ZM95.094 88.2239L95.5647 88.3926L95.5647 88.3926L95.094 88.2239ZM72.1809 110.325V110.825H72.1807L72.1809 110.325ZM52.3814 104.929L52.1271 105.36L52.127 105.36L52.3814 104.929ZM50.9608 104.09L50.8345 103.606L51.0359 103.553L51.2151 103.659L50.9608 104.09ZM36.2375 107.934L36.3638 108.418L35.5257 108.636L35.7554 107.801L36.2375 107.934ZM40.1675 93.6474L40.5902 93.3804L40.7082 93.5671L40.6496 93.78L40.1675 93.6474ZM39.2424 92.1828L39.6651 91.9158L39.6651 91.9158L39.2424 92.1828ZM33.2947 71.5791L32.7947 71.5789L33.2947 71.5791ZM72.2121 32.8668V32.3668H72.2123L72.2121 32.8668ZM99.7144 44.2208L100.067 43.8666H100.067L99.7144 44.2208ZM111.098 71.6104L111.598 71.6106V71.6106L111.098 71.6104ZM72.1961 24.9999V24.4999H72.1963L72.1961 24.9999ZM25.3925 71.5762L25.8925 71.5764V71.5764L25.3925 71.5762ZM31.6399 94.8627L32.0724 94.6119L32.1775 94.7933L32.1219 94.9954L31.6399 94.8627ZM25 119L25.1263 119.484L24.2882 119.703L24.5179 118.867L25 119ZM49.8113 112.523L49.685 112.039L49.8762 111.989L50.0498 112.084L49.8113 112.523ZM72.1775 118.193V118.693L72.1773 118.693L72.1775 118.193ZM119 71.6133L119.5 71.6135V71.6135L119 71.6133ZM93.3118 81.7777C92.7294 81.4876 91.0018 80.6391 89.286 79.8147C87.5544 78.9827 85.8791 78.1969 85.3732 78.0137L85.7138 77.0735C86.28 77.2785 88.0156 78.0948 89.7191 78.9133C91.4386 79.7395 93.1705 80.5901 93.7576 80.8826L93.3118 81.7777ZM85.3732 78.0137C84.8222 77.8141 84.4673 77.7158 84.175 77.7491C83.9377 77.7761 83.6638 77.9025 83.3281 78.4042L82.497 77.8481C82.9409 77.1847 83.4465 76.8256 84.0618 76.7555C84.6221 76.6917 85.1929 76.8848 85.7138 77.0735L85.3732 78.0137ZM83.3281 78.4042C82.5266 79.602 80.2616 82.2493 79.5851 83.0195L78.8337 82.3596C79.5218 81.5762 81.7391 78.9806 82.497 77.8481L83.3281 78.4042ZM79.5851 83.0195C79.196 83.4625 78.7514 83.7729 78.1853 83.8413C77.6396 83.9073 77.0704 83.7361 76.4527 83.4283L76.8988 82.5333C77.4505 82.8082 77.8071 82.8798 78.0654 82.8486C78.3032 82.8198 78.5407 82.6932 78.8337 82.3596L79.5851 83.0195ZM76.4529 83.4283C75.3322 82.8703 71.4711 81.6007 66.9394 77.578L67.6033 76.8301C72.0053 80.7378 75.6803 81.9265 76.8986 82.5332L76.4529 83.4283ZM66.9394 77.578C63.4035 74.4394 61.0247 70.5734 60.334 69.394L61.197 68.8887C61.8709 70.0396 64.1862 73.797 67.6033 76.8301L66.9394 77.578ZM60.334 69.394C59.9329 68.7089 59.8752 68.103 60.0782 67.5595C60.2632 67.0642 60.6473 66.6877 60.9266 66.4109L61.6305 67.1213C61.3241 67.4248 61.1106 67.6534 61.015 67.9094C60.9374 68.1171 60.916 68.4087 61.197 68.8888L60.334 69.394ZM60.9265 66.411C61.435 65.9069 62.0365 65.1183 62.6535 64.4011L63.4115 65.0533C62.859 65.6955 62.1737 66.5828 61.6305 67.1212L60.9265 66.411ZM62.6535 64.4011C63.1886 63.7791 63.3539 63.3605 63.7551 62.5611L64.6488 63.0097C64.2705 63.7636 64.0459 64.3159 63.4115 65.0533L62.6535 64.4011ZM63.7551 62.5612C64.0422 61.9891 63.9188 61.4909 63.6576 60.9707L64.5513 60.522C64.875 61.1668 65.1415 62.0281 64.6489 63.0097L63.7551 62.5612ZM63.6575 60.9705C63.5006 60.6578 62.8321 59.0528 62.0955 57.2721C61.3516 55.4739 60.5244 53.4618 60.0376 52.2978L60.9601 51.912C61.4479 53.0782 62.2773 55.0956 63.0195 56.8899C63.769 58.7017 64.4159 60.2522 64.5513 60.5221L63.6575 60.9705ZM60.0376 52.2978C59.5852 51.2161 59.1727 50.8566 58.8837 50.7207C58.5534 50.5653 58.324 50.6302 57.8429 50.6063L57.8924 49.6076C58.1291 49.6193 58.7408 49.5484 59.3093 49.8158C59.9192 50.1026 60.4634 50.7243 60.9601 51.9119L60.0376 52.2978ZM57.8429 50.6063C57.1746 50.5732 56.4046 50.566 55.6263 50.566V49.566C56.4072 49.566 57.1979 49.5731 57.8924 49.6076L57.8429 50.6063ZM55.6263 50.566C54.9606 50.566 53.8368 50.8164 52.8756 51.8609L52.1398 51.1837C53.3228 49.8983 54.7327 49.566 55.6263 49.566V50.566ZM52.8756 51.8608C51.8058 53.0237 48.9147 55.7128 48.9147 61.2318H47.9147C47.9147 55.294 51.0657 52.3512 52.1397 51.1838L52.8756 51.8608ZM48.9147 61.2318C48.9147 63.983 49.924 66.7165 51.0284 68.8813C52.1292 71.039 53.3023 72.5893 53.5894 72.9708L52.7905 73.5722C52.4929 73.1769 51.2783 71.5716 50.1377 69.3358C49.0006 67.107 47.9147 64.2091 47.9147 61.2318H48.9147ZM53.5894 72.9708C54.2009 73.7832 61.7815 85.4082 73.3649 90.386L72.9701 91.3048C61.0911 86.2 53.3485 74.3136 52.7905 73.5722L53.5894 72.9708ZM73.365 90.386C76.1333 91.5758 78.294 92.286 79.985 92.8204L79.6837 93.774C77.9782 93.235 75.7821 92.5133 72.9701 91.3047L73.365 90.386ZM79.9851 92.8204C82.6876 93.6747 85.1532 93.5572 87.1268 93.2637L87.2739 94.2528C85.2175 94.5586 82.5844 94.6909 79.6837 93.7739L79.9851 92.8204ZM87.1268 93.2637C88.1569 93.1105 89.8195 92.4434 91.3554 91.4637C92.9035 90.4761 94.1943 89.252 94.6233 88.0552L95.5647 88.3926C95.0191 89.9145 93.4865 91.2904 91.8932 92.3068C90.2875 93.331 88.4906 94.0718 87.2739 94.2528L87.1268 93.2637ZM94.6233 88.0552C95.0958 86.737 95.3303 85.517 95.4119 84.5761C95.4527 84.1051 95.4546 83.7117 95.4314 83.416C95.4197 83.268 95.4023 83.1513 95.3829 83.0653C95.362 82.9726 95.3446 82.9422 95.3477 82.9475L96.2044 82.4317C96.3428 82.6616 96.4019 83.0025 96.4283 83.3376C96.4568 83.7004 96.4526 84.1504 96.4081 84.6625C96.3192 85.6878 96.0666 86.9922 95.5647 88.3926L94.6233 88.0552ZM95.3477 82.9475C95.2753 82.8272 95.1126 82.6862 94.7446 82.4851C94.3756 82.2835 93.9253 82.0834 93.3118 81.7777L93.7576 80.8826C94.3135 81.1595 94.8378 81.3965 95.2241 81.6075C95.6114 81.8192 95.9846 82.0665 96.2044 82.4317L95.3477 82.9475ZM72.1966 110.825H72.1809V109.825H72.1966V110.825ZM72.1807 110.825C65.1115 110.823 58.1772 108.933 52.1271 105.36L52.6356 104.499C58.5308 107.98 65.2894 109.823 72.1811 109.825L72.1807 110.825ZM52.127 105.36L50.7064 104.52L51.2151 103.659L52.6357 104.499L52.127 105.36ZM51.0871 104.574L36.3638 108.418L36.1112 107.45L50.8345 103.606L51.0871 104.574ZM35.7554 107.801L39.6854 93.5148L40.6496 93.78L36.7196 108.066L35.7554 107.801ZM39.7448 93.9144L38.8197 92.4498L39.6651 91.9158L40.5902 93.3804L39.7448 93.9144ZM38.8197 92.4499C34.875 86.2055 32.7918 78.9883 32.7947 71.5789L33.7947 71.5793C33.7919 78.8002 35.8218 85.8319 39.6651 91.9158L38.8197 92.4499ZM32.7947 71.5789C32.8034 49.9546 50.4806 32.3668 72.2121 32.3668V33.3668C51.0282 33.3668 33.8032 50.5116 33.7947 71.5793L32.7947 71.5789ZM72.2123 32.3668C82.7346 32.3708 92.6288 36.4554 100.067 43.8666L99.3615 44.575C92.1108 37.3509 82.4705 33.3707 72.2119 33.3668L72.2123 32.3668ZM100.067 43.8666C107.506 51.278 111.602 61.1326 111.598 71.6106L110.598 71.6102C110.602 61.3989 106.612 51.7992 99.3615 44.575L100.067 43.8666ZM111.598 71.6106C111.589 93.2362 93.9119 110.825 72.1966 110.825V109.825C93.364 109.825 110.589 92.6795 110.598 71.6102L111.598 71.6106ZM104.951 39.0145C96.209 30.3037 84.5845 25.5048 72.1959 25.4999L72.1963 24.4999C84.8484 24.5049 96.7268 29.4081 105.657 38.3061L104.951 39.0145ZM72.1961 25.4999C46.6728 25.4999 25.9028 46.1724 25.8925 71.5764L24.8925 71.576C24.903 45.6156 46.1249 24.4999 72.1961 24.4999V25.4999ZM25.8925 71.5764C25.8892 79.6979 28.0211 87.625 32.0724 94.6119L31.2073 95.1136C27.0674 87.9738 24.8891 79.8735 24.8925 71.576L25.8925 71.5764ZM32.1219 94.9954L25.4821 119.133L24.5179 118.867L31.1578 94.7301L32.1219 94.9954ZM24.8737 118.516L49.685 112.039L49.9376 113.007L25.1263 119.484L24.8737 118.516ZM50.0498 112.084C56.8125 115.754 64.4272 117.689 72.1777 117.693L72.1773 118.693C64.261 118.689 56.4823 116.713 49.5727 112.962L50.0498 112.084ZM72.1775 117.693H72.1966V118.693H72.1775V117.693ZM72.1966 117.693H72.1968V118.693H72.1966V117.693ZM72.1968 117.693C97.7177 117.693 118.49 97.0174 118.5 71.6131L119.5 71.6135C119.489 97.5741 98.2656 118.693 72.1968 118.693V117.693ZM118.5 71.6132C118.505 59.3005 113.694 47.725 104.951 39.0145L105.657 38.3061C114.588 47.2039 119.505 59.0342 119.5 71.6135L118.5 71.6132Z" fill="black" fill-opacity="0.2"/>
</g>
<defs>
<filter id="filter0_dd_321_1819" x="20.2881" y="24.4999" width="103.212" height="103.203" filterUnits="userSpaceOnUse" color-interpolation-filters="sRGB">
<feFlood flood-opacity="0" result="BackgroundImageFix"/>
<feColorMatrix in="SourceAlpha" type="matrix" values="0 0 0 0 0 0 0 0 0 0 0 0 0 0 0 0 0 0 127 0" result="hardAlpha"/>
<feOffset dy="4"/>
<feGaussianBlur stdDeviation="2"/>
<feComposite in2="hardAlpha" operator="out"/>
<feColorMatrix type="matrix" values="0 0 0 0 0 0 0 0 0 0 0 0 0 0 0 0 0 0 0.25 0"/>
<feBlend mode="normal" in2="BackgroundImageFix" result="effect1_dropShadow_321_1819"/>
<feColorMatrix in="SourceAlpha" type="matrix" values="0 0 0 0 0 0 0 0 0 0 0 0 0 0 0 0 0 0 127 0" result="hardAlpha"/>
<feOffset dy="4"/>
<feGaussianBlur stdDeviation="2"/>
<feComposite in2="hardAlpha" operator="out"/>
<feColorMatrix type="matrix" values="0 0 0 0 0 0 0 0 0 0 0 0 0 0 0 0 0 0 0.25 0"/>
<feBlend mode="normal" in2="effect1_dropShadow_321_1819" result="effect2_dropShadow_321_1819"/>
<feBlend mode="normal" in="SourceGraphic" in2="effect2_dropShadow_321_1819" result="shape"/>
</filter>
</defs>
</svg>
